<svg width="76" height="76" viewBox="0 0 76 76" fill="none" xmlns="http://www.w3.org/2000/svg">
<path fill-rule="evenodd" clip-rule="evenodd" d="M16.2719 7.30842C13.5819 9.18714 11.1495 11.4084 9.03786 13.9089C17.6668 13.1087 28.6297 14.4153 41.3574 20.7718C54.9489 27.5594 65.8934 27.7889 73.5102 26.3214C72.819 24.2313 71.9489 22.2226 70.9183 20.313C62.1991 21.2315 51.0211 20.0157 37.994 13.5099C29.7217 9.37861 22.4298 7.67678 16.2719 7.30842ZM65.8249 13.0717C58.9393 5.38742 48.9329 0.551453 37.7955 0.551453C34.5248 0.551453 31.3513 0.96858 28.326 1.75243C32.4234 2.86912 36.7762 4.50284 41.3574 6.79083C50.8951 11.554 59.1294 13.0877 65.8249 13.0717ZM75.1387 33.6578C65.9368 35.4728 53.23 35.1 37.994 27.4909C23.7501 20.3772 12.4131 20.4668 4.76705 22.164C4.37239 22.2515 3.98701 22.3435 3.61095 22.4393C2.60989 24.6139 1.81081 26.9006 1.23747 29.2752C1.84983 29.1118 2.48262 28.9565 3.13549 28.8115C12.4115 26.7526 25.5177 26.842 41.3574 34.7527C55.6015 41.8664 66.9384 41.7768 74.5846 40.0796C74.8465 40.0216 75.1047 39.9615 75.3585 39.8995C75.3863 39.3074 75.4002 38.7115 75.4002 38.1124C75.4002 36.6052 75.3115 35.1188 75.1387 33.6578ZM74.1307 47.8262C65.0181 49.4175 52.6813 48.8067 37.994 41.4718C23.7501 34.3582 12.4131 34.4477 4.76705 36.1449C3.06985 36.5215 1.54308 36.9803 0.196244 37.4646C0.192572 37.6801 0.190735 37.896 0.190735 38.1124C0.190735 58.8567 17.0269 75.6734 37.7955 75.6734C55.201 75.6734 69.8447 63.8621 74.1307 47.8262Z" fill="#6E0D91"/>
</svg>
