<svg width="873" height="720" viewBox="0 0 873 720" fill="none" xmlns="http://www.w3.org/2000/svg">
<path d="M941.885 -206.92C1031.12 -190.525 1093.75 -113.596 1161.07 -34.144C1226.82 45.3077 1297.27 128.543 1283.18 204.211C1269.09 279.879 1170.46 347.981 1079.66 394.643C988.852 440.044 905.876 462.744 830.728 522.018C757.145 580.03 691.39 674.615 602.151 707.405C514.478 738.933 401.756 708.666 337.566 645.609C273.377 582.552 254.59 486.706 191.966 408.515C129.343 330.325 19.7515 271.051 2.53003 202.95C-14.6915 134.848 58.8913 57.9191 135.605 -1.35439C213.885 -59.3667 292.164 -100.984 375.141 -121.162C456.551 -141.341 541.093 -140.079 641.291 -160.258C739.923 -180.436 854.211 -224.576 941.885 -206.92Z" fill="url(#paint0_linear_11_216)"/>
<defs>
<linearGradient id="paint0_linear_11_216" x1="0" y1="720" x2="884.666" y2="-501.048" gradientUnits="userSpaceOnUse">
<stop stop-color="#75233D"/>
<stop offset="1" stop-color="#4B1623"/>
</linearGradient>
</defs>
</svg>
